<?xml version="1.0" standalone="no"?>
<!DOCTYPE svg PUBLIC "-//W3C//DTD SVG 20010904//EN"
 "http://www.w3.org/TR/2001/REC-SVG-20010904/DTD/svg10.dtd">
<svg version="1.0" xmlns="http://www.w3.org/2000/svg"
 width="241.000000pt" height="214.000000pt" viewBox="0 0 241.000000 214.000000"
 preserveAspectRatio="xMidYMid meet">

<g transform="translate(0.000000,214.000000) scale(0.100000,-0.100000)"
fill="#000000" stroke="none">
<path d="M1061 1946 c-132 -50 -220 -131 -280 -257 l-36 -76 -31 13 c-18 7
-61 16 -96 20 -159 16 -317 -76 -387 -226 -23 -48 -26 -68 -26 -155 0 -89 3
-107 29 -162 53 -115 177 -207 297 -220 l61 -6 -7 -61 c-3 -34 -13 -110 -22
-171 -21 -138 -20 -162 4 -186 19 -19 36 -20 629 -19 l609 0 23 27 c19 20 22
33 17 57 -19 92 -35 194 -41 269 l-7 84 75 5 c59 4 87 11 136 38 76 40 145
112 180 188 23 49 27 70 27 152 0 77 -5 107 -24 155 -65 161 -273 267 -437
222 l-51 -13 -33 70 c-46 97 -130 180 -233 231 -76 38 -83 39 -195 42 -104 3
-124 0 -181 -21z m264 -51 c138 -36 241 -118 301 -241 34 -68 38 -72 58 -61
11 6 57 11 101 11 65 0 91 -5 137 -26 157 -72 244 -241 204 -398 -19 -72 -72
-157 -123 -196 -56 -43 -141 -73 -202 -74 l-54 0 6 -85 c3 -47 14 -126 23
-176 19 -106 11 -135 -40 -144 -17 -3 -271 -4 -565 -3 l-534 3 -18 25 c-18 24
-18 29 0 145 11 66 20 145 22 175 l4 55 -51 6 c-146 18 -262 122 -300 268 -40
159 45 326 204 399 70 32 193 36 255 9 36 -15 38 -15 43 1 17 59 72 146 120
192 113 107 269 151 409 115z"/>
<path d="M1153 1840 c-185 -27 -323 -209 -323 -425 0 -86 17 -152 50 -195 l19
-25 -14 47 c-50 168 -12 337 102 453 72 73 138 100 243 100 72 0 93 -4 135
-27 65 -34 150 -124 179 -191 46 -103 53 -255 16 -352 -18 -48 1 -24 30 38 55
116 36 283 -48 413 -58 90 -139 143 -247 163 -64 12 -66 12 -142 1z"/>
<path d="M571 1551 c-135 -51 -206 -155 -206 -301 0 -62 6 -86 28 -132 33 -67
90 -121 164 -155 48 -22 65 -25 137 -21 44 2 90 9 101 16 16 9 7 10 -46 5
-191 -17 -358 119 -359 292 0 161 143 286 328 287 95 1 80 20 -20 25 -55 3
-86 -1 -127 -16z"/>
<path d="M1673 1564 c-24 -11 -13 -24 20 -24 147 -1 288 -96 324 -219 36 -127
-31 -253 -170 -317 -55 -26 -73 -29 -159 -29 -101 0 -106 -8 -15 -26 121 -25
251 23 324 119 117 155 54 395 -125 474 -46 21 -172 34 -199 22z"/>
<path d="M687 838 c-4 -18 -12 -80 -19 -137 -18 -155 -71 -141 533 -141 486 0
500 1 519 20 23 23 23 16 0 150 l-18 105 -1 -106 c-1 -67 -5 -109 -13 -117 -9
-9 -133 -12 -495 -12 l-483 0 -11 28 c-7 17 -8 66 -4 135 7 104 3 140 -8 75z"/>
</g>
</svg>
